PathFileType	4	(X/Y/Z)	c:/Users/goper/Files/vsCode/490R/osim_files/A06/A06_SSWS_02.trc
DataRate	CameraRate	NumFrames	NumMarkers	Units                	OrigDataRate	OrigDataStartFrame	OrigNumFrames
120.00	120.00	5	36	mm	120.0	420	1118
                Frame#	Time	LPSIS			LASIS			LTH1			LTH2			LTH3			LTH4			LLFE			LMFE			LSH1			LSH2			LSH3			LSH4			LLMAL			LMMAL			LCAL			LMTP5			LTOE			LMTP1			RPSIS			RASIS			RTH1			RTH2			RTH3			RTH4			RLFE			RMFE			RSH1			RSH2			RSH3			RSH4			RLMAL			RMMAL			RCAL			RMTP1			RTOE			RMTP5		
		X1	Y1	Z1	X2	Y2	Z2	X3	Y3	Z3	X4	Y4	Z4	X5	Y5	Z5	X6	Y6	Z6	X7	Y7	Z7	X8	Y8	Z8	X9	Y9	Z9	X10	Y10	Z10	X11	Y11	Z11	X12	Y12	Z12	X13	Y13	Z13	X14	Y14	Z14	X15	Y15	Z15	X16	Y16	Z16	X17	Y17	Z17	X18	Y18	Z18	X19	Y19	Z19	X20	Y20	Z20	X21	Y21	Z21	X22	Y22	Z22	X23	Y23	Z23	X24	Y24	Z24	X25	Y25	Z25	X26	Y26	Z26	X27	Y27	Z27	X28	Y28	Z28	X29	Y29	Z29	X30	Y30	Z30	X31	Y31	Z31	X32	Y32	Z32	X33	Y33	Z33	X34	Y34	Z34	X35	Y35	Z35	X36	Y36	Z36

420	3.49167	633.75208	988.96490	336.00211	439.55115	931.10889	386.43289	577.02679	581.51569	422.43619	577.01605	538.89581	415.66812	515.53406	571.51233	406.13330	527.56726	530.22906	404.06915	571.02283	463.38104	398.76691	576.59912	457.50156	289.05472	647.92145	384.39859	417.77383	651.19934	338.09991	423.19089	587.62341	371.84946	406.19064	598.82495	332.03888	409.44431	707.82623	92.04460	381.98669	691.34473	101.33167	296.12286	775.73309	84.52704	332.40216	597.22791	40.13738	404.62466	555.84167	58.12291	347.72263	579.23309	51.42351	309.77902	644.60419	1008.25299	206.20583	474.77087	982.17932	137.04533	476.38739	588.04645	90.52079	459.04068	553.45001	92.14688	425.85141	610.97888	102.37180	409.97873	570.07397	97.43586	396.36090	455.09766	116.33002	394.90982	454.62979	206.76643	369.26828	299.45920	128.79646	354.06339	254.21094	130.38762	310.81018	313.20248	139.92352	303.22186	265.88257	135.40727	314.31851	120.40420	119.34534	302.57513	129.16406	204.84921	360.73663	82.47989	167.84552	163.00507	128.49918	195.75298	152.84793	144.23311	154.72264	173.83221	120.45079	107.04249
421	3.50000	625.23950	987.00299	335.35083	430.96683	929.30066	386.15582	570.67395	580.54047	422.35162	571.09271	537.96729	415.51465	509.36499	569.99329	405.77737	521.80316	528.83948	403.67792	566.35248	462.44046	398.64233	572.23230	456.75171	288.78143	644.12781	384.20258	417.68002	647.80505	337.76767	422.95612	583.89532	370.88620	405.87390	595.64233	330.93222	408.71240	707.45294	92.41077	382.02972	690.86090	101.38427	295.96353	775.51556	84.90076	332.49011	597.15826	40.00841	404.67499	555.65649	57.82544	347.72318	579.01941	51.21250	309.83798	636.05817	1006.07080	205.45464	466.71381	979.46948	136.36342	465.89847	586.49402	90.57355	448.43600	552.46375	92.25819	0.00000	0.00000	0.00000	399.37839	569.30481	97.20747	384.36957	454.53308	116.13248	382.66089	454.10278	206.47380	353.98438	299.55557	128.55881	337.78519	254.57239	130.13327	295.34381	314.76614	139.77826	287.18927	267.28839	134.96748	295.42014	121.68030	118.92323	283.33850	130.61209	204.54234	340.75885	82.74556	167.70897	143.98636	132.87497	194.72156	134.17598	148.65547	153.76744	154.81453	124.47383	106.12207
422	3.50833	616.60101	984.94482	334.68515	422.34485	927.40210	385.91974	564.25787	579.49915	422.29987	565.20160	537.04382	415.28748	503.07370	568.50525	405.44446	515.99945	527.47980	403.27945	561.44672	461.43027	398.49252	567.62238	456.10141	288.62335	640.30786	384.04767	417.59030	644.67438	337.86707	423.04044	580.42419	370.12436	405.87766	592.08112	330.52576	409.50235	706.96161	92.81286	382.10794	690.41974	101.70052	296.00940	775.26617	85.31158	332.64587	597.03540	39.84583	404.71472	555.67926	57.65939	348.17291	578.91193	51.10482	309.80313	627.54907	1003.82245	204.70564	457.96368	976.87012	136.03745	455.17770	584.91003	90.54556	437.21030	550.74512	92.02861	402.69849	610.46710	101.23862	388.52658	568.53693	96.81792	372.27890	453.92642	115.78716	370.18167	453.60220	206.09024	339.10797	299.49655	128.33920	321.29407	253.88968	130.14262	280.49100	316.35431	138.23508	271.44638	268.55557	134.48170	278.04401	123.26334	118.11646	264.94229	132.17047	204.17679	322.03378	83.13578	167.78722	125.90693	136.55759	193.43971	116.69797	152.54945	152.32552	137.12378	127.70052	104.92417
423	3.51667	608.01849	982.83099	334.05200	413.66882	924.81213	385.33331	557.77960	578.39838	422.06238	559.03467	536.01910	415.15686	496.82880	566.91028	405.18018	510.10016	526.02112	402.92749	556.37152	460.48706	398.33823	562.45642	454.83969	288.50287	636.30011	383.94043	417.51654	641.02289	337.59799	422.80203	576.13220	369.47070	406.72742	588.78827	329.84558	409.34921	706.30902	93.26862	382.22525	689.88434	102.04437	296.10611	774.82074	85.99754	333.00867	596.86450	39.68816	404.80560	555.21826	57.09222	347.88126	578.60382	50.84714	309.91010	618.97266	1001.47729	203.96872	448.97391	974.39612	135.41310	444.68661	583.47498	90.48241	426.36459	549.62732	92.33208	391.23029	609.13141	101.31482	377.19928	569.17902	95.85722	360.15179	453.24945	115.38484	357.64954	453.03534	205.60533	324.65927	299.29901	128.09900	307.31705	254.81805	129.23270	266.30609	316.78464	137.43451	256.57846	269.34012	133.87347	261.26230	123.99892	117.91793	247.75809	133.00531	203.89191	304.18347	83.25035	168.01186	108.69289	139.60872	192.04399	100.07619	155.62270	150.85248	120.89220	129.90623	103.64450
424	3.52500	599.23938	980.52917	333.41141	404.75748	923.36737	385.08862	551.36060	577.38214	421.92538	553.02765	535.08600	414.94266	490.53494	565.38788	404.83014	504.26169	524.61719	402.50616	551.45087	459.58237	398.22678	557.68976	454.19745	288.20428	632.33270	383.91864	417.34958	637.76788	337.81714	422.85385	572.31531	368.16354	406.81656	585.50275	328.60181	408.57211	705.72491	93.87978	382.37384	689.06879	102.31486	296.07092	774.87213	87.03995	332.72382	596.79236	39.49360	404.79868	554.98035	56.70655	347.97021	578.35297	50.60049	310.00687	610.36938	999.07001	203.34155	439.28604	972.04669	135.21815	433.63858	581.80450	90.31857	415.37640	548.33911	92.05433	381.54218	608.25983	100.11798	366.30902	568.17371	95.21337	348.74963	452.04681	115.03519	344.06769	452.58603	204.67239	310.85019	298.95340	127.80482	295.66931	255.02811	126.19257	252.47337	317.24307	136.89952	242.23985	269.78613	133.17340	245.35605	124.05264	117.22247	231.46191	133.74323	203.48468	287.39630	83.16299	168.23755	92.36947	141.61873	190.33870	84.28976	157.92680	149.25980	104.52797	132.18814	103.21148
